<svg width="32" height="32" viewBox="0 0 32 32" fill="none" xmlns="http://www.w3.org/2000/svg">
<path d="M1.67884 3.78268L1.15702 7.3479H30.843L30.3212 3.78268H1.67884Z" fill="#FFC10B" stroke="#282828" stroke-width="2"/>
<path d="M3.40891 0.999915L3.03362 3.17383H28.9665L28.5912 0.999915H3.40891Z" fill="#FFC10B" stroke="#282828" stroke-width="2"/>
<mask id="path-3-inside-1_2748_1105" fill="white">
<path fill-rule="evenodd" clip-rule="evenodd" d="M29.5383 6.95654H2.46143L3.6922 29.2174H3.69238C3.69244 30.7542 9.20276 32 16.0001 32C22.7974 32 28.3078 30.7542 28.3078 29.2174C28.3078 29.2163 28.3078 29.2153 28.3078 29.2142L29.5383 6.95654Z"/>
</mask>
<path fill-rule="evenodd" clip-rule="evenodd" d="M29.5383 6.95654H2.46143L3.6922 29.2174H3.69238C3.69244 30.7542 9.20276 32 16.0001 32C22.7974 32 28.3078 30.7542 28.3078 29.2174C28.3078 29.2163 28.3078 29.2153 28.3078 29.2142L29.5383 6.95654Z" fill="#FFC10B"/>
<path d="M2.46143 6.95654V4.95654H0.347794L0.464476 7.06695L2.46143 6.95654ZM29.5383 6.95654L31.5353 7.06695L31.652 4.95654H29.5383V6.95654ZM3.6922 29.2174L1.69524 29.3278L1.79972 31.2174H3.6922V29.2174ZM3.69238 29.2174L5.69238 29.2173L5.69231 27.2174H3.69238V29.2174ZM28.3078 29.2142L26.3108 29.1038L26.3075 29.1643L26.3078 29.2249L28.3078 29.2142ZM2.46143 8.95654H29.5383V4.95654H2.46143V8.95654ZM5.68915 29.107L4.45838 6.84613L0.464476 7.06695L1.69524 29.3278L5.68915 29.107ZM3.69238 27.2174H3.6922V31.2174H3.69238V27.2174ZM16.0001 30C12.7043 30 9.78231 29.6964 7.7383 29.2342C6.70015 28.9995 5.99716 28.7477 5.60242 28.5367C5.40347 28.4303 5.3784 28.3843 5.42525 28.4361C5.48258 28.4994 5.69237 28.7691 5.69238 29.2173L1.69238 29.2175C1.69241 30.0499 2.07441 30.6947 2.45965 31.1203C2.83441 31.5344 3.29294 31.8378 3.71681 32.0644C4.56768 32.5192 5.66711 32.8669 6.85622 33.1358C9.26671 33.6807 12.4985 34 16.0001 34V30ZM26.3078 29.2174C26.3078 28.7691 26.5176 28.4994 26.5749 28.4361C26.6218 28.3843 26.5967 28.4303 26.3977 28.5367C26.003 28.7477 25.3 28.9995 24.2619 29.2342C22.2179 29.6964 19.2959 30 16.0001 30V34C19.5016 34 22.7335 33.6807 25.144 33.1358C26.3331 32.8669 27.4325 32.5192 28.2834 32.0643C28.7072 31.8378 29.1658 31.5343 29.5405 31.1203C29.9258 30.6946 30.3078 30.0498 30.3078 29.2174H26.3078ZM26.3078 29.2249C26.3078 29.2213 26.3078 29.2186 26.3078 29.2174H30.3078C30.3078 29.214 30.3078 29.2092 30.3077 29.2035L26.3078 29.2249ZM27.5414 6.84613L26.3108 29.1038L30.3047 29.3246L31.5353 7.06695L27.5414 6.84613Z" fill="#282828" mask="url(#path-3-inside-1_2748_1105)"/>
</svg>
