<?xml version="1.0" standalone="no"?>
<!DOCTYPE svg PUBLIC "-//W3C//DTD SVG 20010904//EN"
 "http://www.w3.org/TR/2001/REC-SVG-20010904/DTD/svg10.dtd">
<svg version="1.0" xmlns="http://www.w3.org/2000/svg"
 width="307.000000pt" height="307.000000pt" viewBox="0 0 307.000000 307.000000"
 preserveAspectRatio="xMidYMid meet">
<metadata>
Created by potrace 1.14, written by Peter Selinger 2001-2017
</metadata>
<g transform="translate(0.000000,307.000000) scale(0.100000,-0.100000)"
fill="#000000" stroke="none">
<path d="M1217 3053 c-3 -3 -54 -7 -114 -9 -268 -10 -364 -18 -508 -40 -64
-10 -166 -37 -171 -46 -3 -5 -8 -24 -11 -41 -3 -18 -12 -40 -21 -51 -10 -10
-17 -31 -18 -46 0 -16 -6 -35 -13 -43 -10 -13 -17 -104 -12 -170 1 -18 29 -33
77 -41 15 -3 28 -7 31 -9 2 -3 6 -49 9 -103 7 -134 14 -277 18 -344 2 -30 6
-102 10 -160 3 -58 8 -154 11 -215 4 -60 8 -120 10 -133 3 -21 -21 -44 -42
-41 -33 6 -43 -3 -43 -36 0 -24 -6 -39 -20 -47 -15 -10 -20 -24 -20 -56 0 -35
-3 -43 -15 -38 -12 4 -15 -4 -16 -37 -1 -23 0 -46 1 -52 2 -5 3 -27 3 -48 -1
-42 4 -47 49 -51 50 -6 68 -16 67 -39 0 -12 2 -67 5 -122 3 -55 8 -152 11
-215 3 -63 7 -158 10 -210 3 -52 8 -142 10 -199 3 -57 8 -107 10 -112 3 -4 1
-10 -5 -14 -6 -4 -7 -12 -3 -18 4 -6 8 -41 10 -76 2 -71 7 -79 49 -87 16 -3
34 -7 39 -8 13 -4 73 -15 110 -21 17 -3 57 -8 90 -11 33 -3 65 -7 72 -9 12 -4
219 -18 290 -19 24 -1 43 -3 43 -6 0 -3 142 -5 315 -6 190 0 315 3 315 9 0 6
5 6 13 1 6 -5 23 -8 37 -7 14 1 65 5 115 8 93 6 141 10 235 21 30 4 64 8 75 8
11 1 26 5 33 9 6 5 12 6 12 4 0 -3 17 -1 38 4 20 5 48 12 61 15 13 3 35 14 49
24 21 17 25 29 28 97 8 156 11 190 18 201 4 7 2 12 -4 12 -6 0 -8 4 -5 10 3 5
8 51 11 102 9 179 13 253 14 253 1 0 3 41 5 90 11 245 14 278 22 286 4 4 26
11 48 14 22 3 45 8 51 9 18 6 12 161 -7 182 -9 11 -15 29 -14 41 1 13 -6 30
-16 39 -10 9 -16 20 -14 25 3 4 1 10 -4 13 -5 3 -7 14 -4 25 5 20 -14 32 -56
37 -45 5 -50 11 -46 51 3 21 6 98 7 170 2 73 5 133 8 133 3 0 6 46 6 103 1 56
5 172 9 257 4 85 8 186 9 223 3 76 8 82 68 92 21 4 41 11 44 17 3 5 6 45 6 89
0 58 -4 83 -16 95 -15 14 -20 34 -17 61 1 6 -6 17 -16 25 -19 13 -22 22 -25
63 -3 29 -34 47 -103 59 -94 18 -111 20 -240 32 -241 22 -883 37 -981 23 -23
-3 -50 -2 -62 2 -11 4 -22 5 -25 2z"/>
</g>
</svg>
