<svg width="28" height="28" viewBox="0 0 28 28" fill="none" xmlns="http://www.w3.org/2000/svg">
<mask id="path-1-outside-1_1831_332" maskUnits="userSpaceOnUse" x="0.5" y="0" width="27" height="28" fill="black">
<rect fill="white" x="0.5" width="27" height="28"/>
<path fill-rule="evenodd" clip-rule="evenodd" d="M14.0009 4.65429C16.4673 2.37244 20.2787 2.44818 22.6548 4.90098C24.7897 7.10675 25.0717 10.4875 23.5024 13H23.5C23.3235 13.2826 23.1236 13.5543 22.9003 13.812L13.9989 23L5.09954 13.812C4.87628 13.5543 4.67643 13.2827 4.5 13H4.49732C2.92805 10.4865 3.2108 7.10097 5.34482 4.90098C7.72303 2.45143 11.5271 2.3692 14.0009 4.65429Z"/>
</mask>
<path fill-rule="evenodd" clip-rule="evenodd" d="M14.0009 4.65429C16.4673 2.37244 20.2787 2.44818 22.6548 4.90098C24.7897 7.10675 25.0717 10.4875 23.5024 13H23.5C23.3235 13.2826 23.1236 13.5543 22.9003 13.812L13.9989 23L5.09954 13.812C4.87628 13.5543 4.67643 13.2827 4.5 13H4.49732C2.92805 10.4865 3.2108 7.10097 5.34482 4.90098C7.72303 2.45143 11.5271 2.3692 14.0009 4.65429Z" fill="#FFE434"/>
<path d="M22.6548 4.90098L24.8105 2.81457L24.8095 2.81362L22.6548 4.90098ZM14.0009 4.65429L11.9652 6.85798L14.0024 8.73982L16.0382 6.8564L14.0009 4.65429ZM23.5024 13V16H25.1658L26.0469 14.5893L23.5024 13ZM23.5 13V10H21.8364L20.9553 11.4111L23.5 13ZM22.9003 13.812L25.055 15.8995L25.113 15.8395L25.1677 15.7765L22.9003 13.812ZM13.9989 23L11.844 25.0872L13.9986 27.3117L16.1535 25.0875L13.9989 23ZM5.09954 13.812L2.83218 15.7765L2.88671 15.8394L2.94464 15.8992L5.09954 13.812ZM4.5 13L7.04496 11.4115L6.16393 10H4.5V13ZM4.49732 13L1.95256 14.5888L2.83363 16H4.49732V13ZM5.34482 4.90098L3.19239 2.81124L3.19146 2.81219L5.34482 4.90098ZM24.8095 2.81362C21.2934 -0.815976 15.6202 -0.930904 11.9635 2.45219L16.0382 6.8564C17.3143 5.67579 19.2639 5.71233 20.5001 6.98835L24.8095 2.81362ZM26.0469 14.5893C28.3267 10.9392 27.9296 6.03725 24.8105 2.81457L20.4991 6.98739C21.6498 8.17625 21.8168 10.0357 20.958 11.4107L26.0469 14.5893ZM23.5 16H23.5024V10H23.5V16ZM25.1677 15.7765C25.494 15.3998 25.7864 15.0025 26.0447 14.5889L20.9553 11.4111C20.8606 11.5628 20.7532 11.7087 20.633 11.8475L25.1677 15.7765ZM16.1535 25.0875L25.055 15.8995L20.7457 11.7245L11.8442 20.9125L16.1535 25.0875ZM2.94464 15.8992L11.844 25.0872L16.1538 20.9128L7.25444 11.7248L2.94464 15.8992ZM1.95504 14.5885C2.21325 15.0021 2.50572 15.3997 2.83218 15.7765L7.3669 11.8475C7.24684 11.709 7.13961 11.5632 7.04496 11.4115L1.95504 14.5885ZM4.49732 16H4.5V10H4.49732V16ZM3.19146 2.81219C0.0691266 6.03105 -0.325767 10.9395 1.95256 14.5888L7.04209 11.4112C6.18187 10.0334 6.35248 8.17089 7.49818 6.98977L3.19146 2.81219ZM16.0365 2.45061C12.3703 -0.935966 6.70765 -0.809485 3.19239 2.81124L7.49726 6.99072C8.73841 5.71234 10.6839 5.67436 11.9652 6.85798L16.0365 2.45061Z" fill="white" fill-opacity="0.4" mask="url(#path-1-outside-1_1831_332)"/>
<path d="M22.6545 4.71088C20.2784 2.50336 16.467 2.4352 14.0006 4.48886C11.5269 2.43228 7.72277 2.50628 5.34456 4.71088C3.21055 6.69087 2.99913 10 3.99989 12H23.999C24.999 10 24.7895 6.69607 22.6545 4.71088Z" fill="#0052A1"/>
<path d="M23.5 13H4.5C4.67643 13.2827 4.87628 13.5543 5.09954 13.812L13.9989 23L22.9003 13.812C23.1236 13.5543 23.3235 13.2826 23.5 13Z" fill="#FFE434"/>
</svg>
