<svg width="24" height="24" viewBox="0 0 24 24" fill="none" xmlns="http://www.w3.org/2000/svg">
<path fill-rule="evenodd" clip-rule="evenodd" d="M20.5036 19.8805C20.9168 19.9488 21.2267 19.9829 21.4161 19.9829L21.4333 19.9317C21.8809 19.9317 22.2597 19.7609 22.5696 19.4364C22.8623 19.129 23 18.7875 23 18.3776C23 17.814 22.5868 17.3529 21.7776 16.9943C21.1234 16.704 20.4519 16.5674 19.7805 16.5674C19.0746 16.5674 17.8694 16.6186 16.1994 16.704C15.3558 16.7723 14.7188 16.8406 14.2884 16.8918C14.3917 15.6622 15.1836 14.5693 16.6815 13.5958C17.6628 12.9981 18.6442 12.3833 19.6255 11.7685C20.6585 11.0683 21.4161 10.351 21.8981 9.6167C22.5007 8.67742 22.8106 7.55028 22.8106 6.23529C22.8106 4.9203 22.1736 3.86148 20.934 3.05882C19.8494 2.35863 18.627 2 17.2669 2C16.1822 2 15.1148 2.29032 14.099 2.83681C13.3931 3.2296 12.5667 3.82732 11.6198 4.66414C11.2238 5.00569 11.0344 5.41556 11.0344 5.89374C11.0344 6.33776 11.2238 6.67932 11.6198 6.93548C11.9469 7.14042 12.3085 7.24288 12.7217 7.24288C13.066 7.24288 13.703 6.86717 14.6327 6.13283C15.5624 5.3814 16.4405 5.02277 17.2669 5.02277C17.7317 5.02277 18.2138 5.17647 18.7131 5.46679C19.2123 5.77419 19.4534 6.06452 19.4534 6.35484C19.4534 7.48197 18.8336 8.50664 17.594 9.39469C16.5438 10.0778 15.4935 10.7609 14.4261 11.4611C13.2898 12.2296 12.4806 12.981 11.9813 13.7324C11.3271 14.7059 11 15.9355 11 17.3871C11 18.1385 11.0861 18.685 11.241 19.0436C11.4821 19.6072 11.9641 19.8975 12.67 19.8975C12.7561 19.8975 12.8766 19.8975 13.0488 19.9488C13.2209 20 13.3415 20 13.4275 20C13.7202 20 14.1851 19.9488 14.7877 19.8805C15.3902 19.7951 15.8551 19.778 16.1478 19.778H19.6083C19.7977 19.778 20.0904 19.8121 20.5036 19.8805ZM7.8472 10.4365C8.00259 10.297 8.14232 10.1717 8.26638 10.0622L8.28384 10.0444C8.75546 9.58222 9 9.19111 9 8.88889C9 8.65778 8.8952 8.44444 8.70306 8.26667C8.51092 8.08889 8.28384 8 8.0393 8C7.72489 8 7.48035 8.14222 7.28821 8.42667C7.0786 8.72889 6.74673 9.08444 6.25764 9.51111C5.87336 9.83111 5.47162 10.1689 5.08734 10.5067L4.00437 9.08444C3.42795 8.42667 2.99127 8.08889 2.65939 8.08889C2.41485 8.08889 2.18777 8.19556 2.0131 8.37333C1.83843 8.55111 1.75109 8.76444 1.75109 9.01333C1.75109 9.26222 1.8559 9.49333 2.10044 9.68889C2.37991 9.92 2.67686 10.2578 2.99127 10.6844C3.12227 10.8622 3.24891 11.0444 3.37555 11.2267C3.50218 11.4089 3.62882 11.5911 3.75983 11.7689C3.42001 12.1147 3.12876 12.405 2.88966 12.6433C2.72317 12.8092 2.58197 12.9499 2.46725 13.0667C2.15284 13.3156 1.8559 13.5822 1.55895 13.8489C1.19214 14.2044 1 14.5067 1 14.7733C1 15.0222 1.1048 15.2356 1.27948 15.4133C1.45415 15.5911 1.66376 15.68 1.92576 15.68C2.18777 15.68 2.41485 15.5733 2.60699 15.36C2.71025 15.2399 2.86335 15.1071 3.05577 14.9402C3.09118 14.9095 3.12793 14.8776 3.16594 14.8444C3.9345 14.1333 4.51092 13.5822 4.87773 13.2089C5.82096 14.4 6.50218 15.2178 6.90393 15.6622C7.09607 15.8933 7.32314 16 7.58515 16C7.84716 16 8.05677 15.9289 8.24891 15.7333C8.44105 15.5378 8.52838 15.3422 8.52838 15.0933C8.52838 14.8978 8.45852 14.72 8.30131 14.5244L6.22271 11.9289L7.27074 10.9511C7.48226 10.7639 7.67442 10.5915 7.8472 10.4365Z" fill="#282828"/>
</svg>
