<svg width="3840" height="56" viewBox="0 0 3840 56" fill="none" xmlns="http://www.w3.org/2000/svg">
<g clip-path="url(#clip0_2488_1163)">
<path fill-rule="evenodd" clip-rule="evenodd" d="M2599.25 20.3227C2615.4 13.5001 2649.34 2.87008 2662.22 5.09946C2670.5 6.53109 2675.61 14.4823 2680.71 22.4213C2686.81 31.9156 2692.89 41.3925 2704.37 39.6804C2714.51 38.1673 2719.77 30.536 2725.1 22.8166C2730.83 14.4984 2736.64 6.0778 2748.7 5.09946C2759.1 4.25514 2771.55 10.5914 2785.25 17.5672C2802.16 26.1758 2820.99 35.7583 2840.25 34.0217C2857.58 32.4602 2867.37 24.5388 2877.03 16.7295C2886.81 8.81659 2896.45 1.01881 2913.64 0.0694745C2929.61 -0.812454 2937.16 6.82761 2945.13 14.892C2954.2 24.0755 2963.82 33.8093 2987.03 32.1355C3010.61 30.4354 3021.23 22.6673 3030.49 15.8914C3038.35 10.1377 3045.23 5.09946 3058.25 5.09946C3070.65 5.09946 3074.98 10.1549 3079.58 15.5259C3085.49 22.4303 3091.85 29.8561 3116.38 27.7343C3137.73 25.8868 3149.49 19.2143 3159.61 13.4762C3170.16 7.49715 3178.91 2.53275 3194.85 5.09946C3211.52 7.78237 3215.37 16.7261 3218.75 24.5839C3221.71 31.4579 3224.31 37.5008 3234.82 37.7942C3246.53 38.1211 3251.76 29.9484 3256.94 21.85C3261.73 14.3736 3266.47 6.96054 3276.24 6.35692C3284.19 5.86532 3291.37 10.3707 3299.98 15.7781C3313.4 24.2024 3330.31 34.8161 3359.08 32.1355C3382.97 29.9085 3394.78 23.6148 3405.88 17.6956C3416.73 11.9164 3426.9 6.49417 3447 5.56233V5.56213C3467.9 6.50296 3479.14 14.0976 3491.01 22.1176C3503.33 30.4406 3516.33 39.2219 3541.5 41.5C3571.59 44.2238 3586.51 34.7855 3598.37 27.2744C3606 22.4496 3612.36 18.4199 3620.69 18.9198C3630.77 19.5252 3634.72 22.7472 3638.59 25.9034C3642.89 29.4105 3647.09 32.8364 3659.5 32.5C3671 32.1884 3674.53 29.8625 3678.92 26.9681C3683.54 23.928 3689.1 20.2607 3705.85 17.6417C3722.54 15.0329 3731.7 20.0787 3742.73 26.1558C3753.32 31.988 3765.63 38.77 3787.97 40.6477C3813.63 42.8043 3820.29 35.2568 3826.48 28.2391C3831.3 22.7801 3835.83 17.6417 3848.8 17.6417C3862.42 17.6417 3869.63 22.7626 3877.85 28.6106C3887.54 35.4976 3898.65 43.3931 3923.32 45.1211C3947.61 46.8224 3957.68 36.9289 3967.17 27.5949C3975.51 19.3982 3983.41 11.6329 4000.12 12.5293C4018.11 13.4942 4028.2 21.4198 4038.43 29.4625C4048.54 37.3998 4058.79 45.4511 4076.92 47.0383C4097.08 48.8033 4116.78 39.0637 4134.47 30.3139C4148.81 23.2237 4161.83 16.7836 4172.73 17.6417C4185.35 18.6361 4191.42 27.1949 4197.42 35.6495C4201.01 40.7025 4204.57 45.7183 4209.48 49.0599L3843.5 54.4994L3447 54.4998L2594 54.5002V54.2849L1912.5 54.2848L1900 37.0303C1910.4 30.6397 1934.25 18.4977 1946.48 21.0539C1952.39 22.2884 1956.53 24.5282 1960.42 26.628C1966.6 29.9632 1972.12 32.9453 1983 30.9845C1991.43 29.4663 1995.89 25.1995 2000.36 20.9329C2005.29 16.2194 2010.23 11.5063 2020.5 10.5C2029.26 9.64147 2037.63 15.5131 2046.83 21.9723C2058.17 29.9367 2070.79 38.7946 2087 37.0303C2101.32 35.4719 2111.74 30.8735 2122 26.3486C2132.77 21.5955 2143.37 16.9236 2158.09 15.9415C2171.45 15.0506 2183.02 20.2312 2195.26 25.7125C2209.36 32.0271 2224.36 38.7407 2244 37.0303C2264.18 35.2732 2265.78 30.6177 2267.09 26.7826C2268.17 23.6434 2269.06 21.0539 2279.8 21.0539C2290.27 21.0539 2292.99 25.735 2295.86 30.6618C2299.52 36.9557 2303.42 43.6508 2324 41.5C2341.47 39.6741 2352.39 33.7913 2361.88 28.6816C2372.31 23.0612 2381 18.3761 2394.78 21.0539C2408.46 23.7144 2413.26 28.9698 2417.38 33.489C2421.18 37.6539 2424.41 41.1935 2433.5 41.5C2443.38 41.8331 2446.4 36.9591 2449.45 32.0344C2452.25 27.5105 2455.08 22.9439 2463.28 22.332C2469.94 21.8346 2476.33 25.3046 2484 29.4658C2496.04 35.9976 2511.22 44.2326 2535.5 41.5C2558.98 38.858 2569.2 33.8953 2580.43 28.4417C2585.91 25.7814 2591.63 23.0043 2599.25 20.3227ZM4233.11 48.7087C4229.32 51.8469 4224.86 53.6234 4219.11 52.7897C4215.33 52.2423 4212.2 50.9068 4209.48 49.0599L4233.11 48.7087ZM4233.11 48.7087C4237.22 45.297 4240.55 40.2758 4243.87 35.2496L4243.87 35.2476C4249.21 27.1784 4254.55 19.0968 4263.21 17.6417C4278.42 15.0855 4308.07 27.2276 4321 33.6181L4345.5 47.0383L4233.11 48.7087Z" fill="white"/>
</g>
<g clip-path="url(#clip1_2488_1163)">
<path fill-rule="evenodd" clip-rule="evenodd" d="M2401 33.6185C2388.07 27.228 2358.42 15.0859 2343.21 17.6422C2334.55 19.0973 2329.21 27.1789 2323.87 35.2481C2320.55 40.2692 2317.23 45.2855 2313.12 48.6974L2289.46 49.0466C2284.56 45.7051 2281 40.6961 2277.42 35.6499C2271.42 27.1953 2265.35 18.6366 2252.73 17.6422C2241.83 16.784 2228.81 23.2242 2214.47 30.3144C2196.78 39.0641 2177.08 48.8037 2156.92 47.0387C2138.79 45.4516 2128.54 37.4003 2118.43 29.4629C2108.2 21.4202 2098.11 13.4946 2080.12 12.5297C2063.41 11.6333 2055.51 19.3986 2047.17 27.5953C2037.68 36.9294 2027.61 46.8228 2003.32 45.1215C1978.65 43.3936 1969.94 37.2117 1962.45 31.8982C1956.09 27.386 1950.62 23.5 1937 23.5C1924.21 23.5 1918.1 27.4 1911.63 31.53C1903.09 36.9795 1893.93 42.8294 1867.97 40.6481C1845.63 38.7704 1833.32 31.9884 1822.73 26.1563C1811.7 20.0792 1802.54 15.0334 1785.85 17.6422C1769.1 20.2612 1763.54 23.9284 1758.92 26.9686C1754.53 29.8629 1751 32.1888 1739.5 32.5005C1727.09 32.8368 1722.89 29.411 1718.59 25.9038C1714.72 22.7477 1710.77 19.5256 1700.69 18.9202C1692.36 18.4204 1686 22.45 1678.37 27.2748C1666.51 34.7859 1651.59 44.2242 1621.5 41.5005C1596.33 39.2223 1583.33 30.4411 1571.01 22.1181C1559.14 14.098 1547.9 6.5034 1527 5.56257C1527 -4.06993 1526.65 -1.76173 1526.18 5.60321C1506.62 6.64254 1496.58 11.9956 1485.88 17.6958C1474.78 23.615 1462.97 29.9087 1439.08 32.1357C1410.31 34.8162 1393.4 24.2026 1379.98 15.7783C1371.37 10.3709 1364.19 5.86549 1356.24 6.35709C1346.47 6.96071 1341.73 14.3738 1336.94 21.8502C1331.76 29.9486 1326.53 38.1213 1314.82 37.7944C1304.31 37.501 1301.71 31.458 1298.75 24.584C1295.37 16.7263 1291.52 7.78254 1274.85 5.09963C1258.91 2.53292 1250.16 7.49731 1239.61 13.4764C1229.49 19.2144 1217.73 25.887 1196.38 27.7344C1171.85 29.8563 1165.49 22.4305 1159.58 15.5261C1154.98 10.1551 1150.65 5.09963 1138.25 5.09963C1125.23 5.09963 1118.35 10.1379 1110.49 15.8915C1101.23 22.6674 1090.61 30.4356 1067.03 32.1357C1043.82 33.8095 1034.2 24.0757 1025.13 14.8922C1017.16 6.82778 1009.61 -0.812284 993.644 0.0696442C976.455 1.01898 966.813 8.81676 957.028 16.7297C947.372 24.539 937.577 32.4604 920.253 34.0219C900.986 35.7584 882.163 26.1759 865.253 17.5674C851.55 10.5916 839.104 4.25531 828.695 5.09963C816.635 6.07797 810.83 14.4986 805.096 22.8168C799.774 30.5362 794.513 38.1674 784.37 39.6806C772.894 41.3927 766.806 31.9158 760.706 22.4215C755.606 14.4825 750.498 6.53126 742.225 5.09963C729.342 2.87025 695.396 13.5003 679.248 20.3228C671.631 23.0044 665.912 25.7816 660.432 28.4419C649.2 33.8955 638.979 38.8582 615.5 41.5002C591.217 44.2327 576.041 35.9978 564.003 29.466C556.335 25.3048 549.94 21.8348 543.276 22.3322C535.077 22.9441 532.249 27.5107 529.448 32.0346C526.399 36.9592 523.382 41.8333 513.5 41.5002C504.407 41.1937 501.178 37.6541 497.379 33.4892C493.257 28.97 488.463 23.7146 474.778 21.0541C461.003 18.3763 452.307 23.0613 441.876 28.6817C432.393 33.7915 421.475 39.6743 404 41.5002C383.417 43.6509 379.522 36.9559 375.861 30.662C372.995 25.7352 370.271 21.0541 359.798 21.0541C349.062 21.0541 348.173 23.6436 347.095 26.7828C345.777 30.6179 344.178 35.2734 324 37.0304C304.356 38.7409 289.363 32.0273 275.26 25.7127C263.019 20.2314 251.449 15.0508 238.092 15.9417C223.366 16.9238 212.775 21.5957 202 26.3487C191.742 30.8737 181.317 35.4721 167 37.0304C150.79 38.7948 138.173 29.9369 126.828 21.9724C117.628 15.5132 109.264 9.64164 100.5 10.5002C90.2276 11.5065 85.2938 16.2196 80.3597 20.9331C75.8934 25.1997 71.4268 29.4665 63 30.9846C52.1161 32.9454 46.5958 29.9634 40.4216 26.6282C36.5344 24.5284 32.3881 22.2886 26.481 21.0541C14.2491 18.4979 -9.60294 30.6399 -20 37.0304L-7.5 54.285L674 54.285V54.5004L1523.5 54.5C1523.5 55.761 1523.55 55.6431 1523.63 54.5H1920L2289.46 49.0466C2292.18 50.9007 2295.32 52.2414 2299.11 52.7902C2304.87 53.6249 2309.33 51.8429 2313.12 48.6974L2425.5 47.0387L2401 33.6185Z" fill="white"/>
</g>
<defs>
<clipPath id="clip0_2488_1163">
<rect width="1920" height="56" fill="white" transform="translate(1920)"/>
</clipPath>
<clipPath id="clip1_2488_1163">
<rect width="1920" height="56" fill="white"/>
</clipPath>
</defs>
</svg>
